PathFileType	4	(X/Y/Z)	C:/Users/beibeiliu/ov580/test_trc/User2\sequence.34_training_dense_right.trc
DataRate	CameraRate	NumFrames	NumMarkers	Units	OrigDataRate	OrigDataStartFrame	OrigNumFrames
120	120	20	19	mm	120	1	144
Frame#	Time	ThumbCMC			ThumbMCP			ThumbIP			ThumbTip			IndexMCP			IndexPIP			IndexTip			MiddleMCP			MiddlePIP			MiddleTip			RingMCP			RingPIP			RingTip			PinkyMCP			PinkyPIP			PinkyTip			BackHand1			BackHand2			BackHand3	
		X0	Y0	Z0	X1	Y1	Z1	X2	Y2	Z2	X3	Y3	Z3	X4	Y4	Z4	X5	Y5	Z5	X6	Y6	Z6	X7	Y7	Z7	X8	Y8	Z8	X9	Y9	Z9	X10	Y10	Z10	X11	Y11	Z11	X12	Y12	Z12	X13	Y13	Z13	X14	Y14	Z14	X15	Y15	Z15	X16	Y16	Z16	X17	Y17	Z17	X18	Y18	Z18	
0	0	97.1367	-5.37295	-47.0179	66.5527	-12.0915	-61.4446	41.4743	-17.8899	-84.6649	25.3452	-24.5437	-101.471	88.7586	16.4101	-128.982	75.337	12.9689	-156.831	63.12	11.3741	-177.559	121.418	20.4758	-142.691	113.412	18.8005	-172.64	112.904	17.5761	-204.883	146.068	12.426	-142.678	146.724	12.0897	-169.392	148.855	14.6186	-197.984	171.431	-0.952148	-130.301	181.628	-3.2578	-152.77	192.21	0.368498	-170.671	152.391	16.9615	-85.4297	158.418	20.2649	-51.1753	121.482	20.9103	-61.2485	
1	0.00833333	93.4977	-5.92488	-51.3413	70.1669	-14.0066	-61.5443	41.9745	-19.0546	-86.1707	22.8055	-27.2373	-97.8309	88.2008	14.1787	-129.195	72.4894	12.7751	-155.563	64.3948	9.83226	-182.496	117.219	18.5631	-141.575	111.255	17.3516	-176.813	111.191	17.4419	-206.76	142.985	11.8259	-145.258	150.476	10.0458	-167.052	146.837	13.9685	-197.78	170.24	-2.33345	-130.186	181.987	-3.76103	-154.373	189.195	0.384133	-176.128	151.507	15.0582	-85.9224	158.029	17.9257	-52.3846	119.66	20.6712	-64.6457	
2	0.0166667	93.9689	-6.5194	-46.2137	69.7484	-13.5057	-64.2284	41.0532	-18.6985	-85.1681	25.0778	-25.6301	-100.247	88.508	14.3715	-130.065	73.4155	12.499	-152.004	66.2241	10.7536	-179.755	116.424	18.5721	-147.019	111.157	17.348	-176.325	111.515	17.9704	-208.06	146.126	11.5297	-144.377	146.556	10.3557	-167.069	147.882	13.304	-196.894	170.884	-0.401074	-131.658	181.442	-4.68351	-152.6	188.767	-0.316161	-172.923	152.277	15.6623	-87.42	160.56	19.2135	-55.8704	122.065	21.0606	-63.8329	
3	0.025	92.5345	-4.89135	-49.0259	68.4853	-12.3175	-61.1789	41.5616	-16.6533	-86.9894	22.7673	-24.3579	-100.403	87.5613	16.1299	-127.713	72.6972	14.2417	-156.281	67.3699	13.1829	-181.957	121.125	20.9384	-145.54	115.377	19.4763	-178.102	114.6	18.7839	-206.96	144.951	15.0695	-145.915	148.382	13.9103	-171.14	146.959	14.8732	-198.088	170.985	1.42533	-130.751	179.92	-3.002	-151.751	191.01	0.28489	-177.818	149.767	19.3472	-86.6277	159.758	18.355	-52.8582	117.837	21.6811	-66.466	
4	0.0333333	91.2559	-3.17802	-49.4353	69.0206	-10.7016	-62.0778	41.5294	-14.7443	-85.2905	23.6286	-21.9409	-102.16	87.9462	19.8156	-131.02	73.9108	18.1436	-153.085	68.7771	14.6137	-181.726	117.282	24.5328	-140.311	113.502	22.2598	-177.351	111.814	20.2934	-205.421	144.577	16.823	-140.257	145.064	16.2538	-171.845	145.867	15.1604	-200.772	171.954	2.83797	-128.043	180.769	-0.501482	-157.694	187.477	-5.36196	-182.038	151.004	19.9206	-82.6949	162.346	21.2531	-52.1983	123.74	22.2796	-62.7696	
5	0.0416667	92.3055	-1.34727	-49.839	71.1601	-7.82536	-62.8514	45.2353	-12.2004	-82.1045	26.8132	-17.2198	-100.47	87.3675	24.51	-126.809	78.9901	23.9487	-156.801	65.5609	14.044	-183.557	120.862	30.0936	-138.759	117.393	27.529	-174.39	111.931	15.0792	-203.976	143.436	21.7685	-142.333	147.334	18.1215	-169.792	139.898	6.09707	-196.973	173.052	5.74523	-131.568	175.33	-0.9618	-157.34	176.844	-18.3056	-185.521	155.6	21.7313	-84.9337	160.171	21.463	-53.2265	123.666	24.9765	-64.8594	
6	0.05	95.7378	4.55709	-48.5409	69.3415	1.91341	-59.8848	41.072	1.9083	-82.5362	24.7064	-2.98018	-100.664	92.0012	34.8138	-125.32	78.4963	32.0977	-156.186	78.0666	10.5495	-180.351	119.595	37.8372	-137.463	114.834	28.5882	-173.613	108.67	-2.32444	-194.026	146.383	25.5495	-142.108	143.209	14.8111	-170.851	131.5	-11.7945	-186.833	166.467	6.84171	-130.696	166.248	-10.3457	-161.16	149.873	-36.1547	-172.722	154.471	25.5949	-80.6725	160.741	22.8628	-50.0476	124.071	29.4858	-62.1404	
7	0.0583333	97.7167	12.7214	-42.6567	72.2882	15.7121	-59.8464	46.2587	20.2411	-82.3557	29.6164	20.6888	-104.464	96.2183	42.9685	-125.82	88.3337	30.1808	-157.988	80.2956	-2.66219	-165.917	121.481	37.3423	-140.864	109.441	18.267	-170.613	99.9459	-22.1917	-165.311	142.305	21.0001	-144.953	131.907	1.78543	-168.225	112.713	-25.3179	-161.16	159.057	3.50985	-132.092	145.462	-15.704	-156.058	125.556	-43.5381	-148.359	156.018	27.901	-85.6173	165.833	22.4832	-49.5676	127.545	35.0737	-57.8757	
8	0.0666667	103.903	26.3247	-48.6863	78.7789	35.3905	-61.3793	58.3437	43.7419	-85.737	41.4613	47.392	-107.336	103.477	43.357	-131.769	88.0021	25.8802	-155.548	77.298	-3.77496	-144.129	120.692	31.2233	-143.295	98.4339	3.30188	-160.835	88.2254	-20.3836	-137.646	134.039	13.6931	-143.239	115.05	-8.71194	-157.856	100.01	-30.2189	-128.69	148.375	-6.41739	-135.965	122.193	-26.483	-144.358	111.214	-43.0285	-120.66	163.409	21.726	-89.5799	171.582	17.1889	-57.381	138.102	36.9906	-61.3079	
9	0.075	108.659	39.2466	-45.7558	86.7097	52.36	-66.0399	69.4556	63.6802	-91.805	55.6403	69.063	-115.574	106.096	41.9291	-135.437	82.3125	26.1624	-148.542	72.0532	3.71176	-119.252	113.211	27.3311	-145.59	87.4123	-0.580154	-147.621	80.5572	-12.6894	-114.138	125.821	4.83147	-142.617	99.8456	-14.3199	-144.152	92.9299	-20.077	-107.704	136.893	-16.0633	-134.723	106.343	-30.0936	-129.654	100.392	-29.4873	-97.8383	159.379	18.0692	-89.3885	171.216	12.8314	-61.329	146.56	39.5908	-65.1234	
10	0.0833333	116.895	46.5076	-52.5499	97.3344	66.2454	-72.3863	80.8201	78.2485	-99.6996	70.3055	81.1949	-123.613	107.039	46.183	-133.973	76.3247	26.5648	-139.083	74.4391	11.9259	-108.51	112.145	23.2443	-143.346	83.9297	1.68562	-139.865	82.3467	-2.41461	-99.9419	115.845	-0.987674	-140.631	90.2126	-13.9008	-130.334	93.1853	-9.3668	-93.6114	125.807	-20.0209	-129.598	96.4607	-24.9519	-115.176	102.614	-16.3082	-81.4225	160.965	14.6851	-90.5921	172.787	10.8423	-59.1158	149.707	39.4747	-67.8088	
11	0.0916667	121.174	50.5867	-51.3006	107.843	65.7532	-75.6089	93.9277	81.4093	-109.331	82.6235	87.4327	-131.881	105.846	46.7995	-135.764	77.4573	28.4588	-134.538	78.4712	21.0719	-98.9201	112.671	25.0536	-140.23	79.5383	5.96324	-131.009	82.5502	8.40486	-91.6933	111.194	-1.46558	-136.539	86.3886	-10.9657	-120.354	97.8665	0.40798	-85.5088	114.917	-16.1681	-125.404	91.2874	-19.6519	-101.784	107.351	-10.8078	-74.9872	161.183	9.2899	-97.5346	171.326	7.00649	-61.6485	151.826	42.1043	-73.641	
12	0.1	124.748	54.9715	-54.1831	112.756	68.7967	-79.3525	100.556	80.1004	-109.288	91.4914	84.3007	-133.952	106.317	47.3746	-138.252	78.8586	31.0067	-131.862	79.1351	27.8619	-98.8834	108.433	23.9097	-141.912	79.575	7.49253	-124.371	87.9096	11.658	-88.4285	107.102	-0.312843	-133.563	84.5129	-8.08791	-111.374	100.151	6.43946	-82.0784	111.723	-18.145	-123.178	90.9152	-14.0519	-97.9155	110.692	-4.13219	-73.8029	162.469	8.61639	-96.8811	169.937	4.35222	-62.5663	157.627	40.6146	-71.8127	
13	0.108333	126.461	51.6732	-58.576	112.695	69.4168	-82.3978	103.405	75.5861	-114.42	92.9765	77.2324	-137.663	111.128	44.9835	-136.619	80.4898	31.6226	-131.875	85.2007	29.996	-93.772	113.971	20.2999	-140.413	80.5061	10.0839	-126.571	91.6501	14.8041	-85.3657	105.952	-2.52755	-132.678	84.4448	-0.751537	-112.869	99.8579	5.37206	-82.4999	113.727	-19.1983	-121.944	91.8154	-13.251	-93.8879	110.312	-2.25058	-74.5362	161.841	7.23281	-94.0964	169.926	3.47878	-63.8454	158.473	40.6521	-72.0798	
14	0.116667	125.053	53.3845	-59.6461	109.104	71.2372	-82.9345	99.9777	72.1293	-117.203	92.4672	67.7831	-146.044	108.982	46.1132	-140.449	81.0079	31.4015	-131.293	84.0872	32.2607	-97.4293	111.625	23.9784	-140.877	81.4379	10.4251	-127.787	91.0961	17.0887	-87.2576	107.979	-2.96703	-132.992	84.0446	-2.79529	-109.764	104.361	8.82097	-81.8138	113.701	-17.518	-121.486	90.7457	-16.1713	-96.006	114.029	-2.03243	-72.135	161.959	3.57071	-96.3491	170.011	4.81339	-61.9671	156.532	39.1665	-76.2994	
15	0.125	123.582	55.1411	-60.7666	105.528	67.2077	-84.473	93.1443	69.1485	-117.759	85.4045	61.652	-142.306	110.066	46.0757	-141.179	79.9144	33.4534	-132.876	82.434	33.7211	-98.8404	110.36	21.8982	-142.763	79.3174	13.8809	-125.969	88.1563	17.8796	-89.7962	107.254	1.30893	-134.851	84.7132	-7.38429	-115.486	102.556	5.57878	-82.8934	113.655	-18.3991	-123.058	91.4514	-15.7232	-97.8312	111.349	-2.48803	-73.7466	163.914	3.11566	-96.1985	171.725	2.10772	-65.1657	156.727	38.6414	-73.4292	
16	0.133333	121.653	50.9263	-59.6039	100.047	66.8111	-84.093	88.1912	63.2279	-118.548	78.9371	54.9463	-142.324	108.809	45.5392	-141.4	79.0969	34.4939	-135.256	83.5946	30.0737	-98.2927	113.219	23.8737	-142.814	80.0016	12.8389	-129.964	88.983	11.9754	-91.2931	111.993	1.28173	-134.942	84.3301	-4.66417	-115.046	101.182	6.93751	-83.9953	116.458	-19.2979	-124.107	91.3023	-13.6585	-98.2158	110.168	-2.08052	-74.5136	163.301	5.89715	-95.2088	172.048	2.72138	-61.4962	155.827	37.8394	-72.2448	
17	0.141667	120.078	54.9804	-59.499	97.8533	63.8228	-83.7681	79.7195	66.2735	-112.311	72.8831	54.7489	-136.421	108.069	44.546	-140.607	78.9869	32.2461	-134.745	81.0697	29.8583	-100.142	110.102	21.9718	-143.323	78.6098	11.1534	-127.869	86.0395	16.5032	-90.6741	107.85	3.18051	-136.309	83.5069	-5.76307	-114.226	97.5469	7.3275	-86.4454	111.942	-15.4611	-124.933	89.4865	-14.1001	-99.2629	105.055	-6.65466	-72.9856	162.95	6.18682	-95.8426	171.849	3.96867	-59.9538	154.258	41.8456	-71.6759	
18	0.15	120.569	57.5301	-52.7545	97.0797	68.3903	-78.7021	76.2985	71.6312	-105.408	68.6996	58.7654	-133.026	107.773	50.2529	-136.883	78.5771	35.8053	-134.855	80.9856	29.0599	-96.0743	108.468	27.0546	-143.631	79.7858	12.7814	-132.026	88.2529	13.5118	-90.1625	111.328	0.427342	-135.784	82.237	-3.53532	-120.244	97.0467	7.06828	-86.2467	114.772	-15.1567	-124.621	87.7727	-12.1966	-100.204	102.532	-6.4264	-75.9853	160.356	10.7992	-96.1634	168.113	6.48911	-61.2704	156.073	40.0289	-72.3351	
19	0.158333	122.495	59.048	-54.0611	101.251	70.465	-75.5781	80.7793	78.0908	-98.745	68.3407	71.8231	-126.461	109.788	51.3972	-133.562	77.8972	38.7591	-132.584	77.9689	35.0406	-97.5056	110.408	24.1209	-142.887	79.16	14.6706	-129.483	88.3817	17.3112	-89.4853	106.592	2.69543	-136.142	81.2237	0.948204	-118.194	98.9255	8.75972	-85.05	114.769	-12.4675	-122.919	87.3869	-12.5914	-101.946	103.925	0.509567	-74.119	159.857	11.7211	-97.1511	170.041	5.67017	-63.9527	157.192	39.4142	-69.7731	
